<svg xmlns="http://www.w3.org/2000/svg" width="32" height="33" stroke="none" stroke-linecap="round" stroke-linejoin="round" fill="#fff" fill-rule="evenodd"><path d="M31 5.7692C31 2.9077 28.6923 1 25.923 1H6.077C3.3077 1 1 2.9077 1 5.7692v21.4616C1 30.0923 3.3077 32 6.077 32H25.923C28.6923 32 31 30.0923 31 27.2308z" fill="#c93344"/><path d="M15.7893 14.2776c.7746 0 1.362-.176 1.762-.5278s.6-.8707.6-1.5568c0-.6773-.2-1.192-.6-1.5437-.4-.3606-.9874-.54-1.762-.54h-2.7197v4.1693h2.7197m.166 8.6157c.9874 0 1.728-.2155 2.2217-.6465.5022-.43.7533-1.082.7533-1.9527 0-.8532-.247-1.491-.7406-1.9132-.4937-.431-1.2385-.6465-2.2344-.6465h-2.8857v5.159h2.8857m4.57-7.0852c1.0555.3167 1.8727.9016 2.4516 1.7548s.8682 1.9.8682 3.1402c0 1.9-.6214 3.316-1.8642 4.2484s-3.1325 1.3986-5.669 1.3986h-8.16V6.6515h7.38c2.6473 0 4.5626.4134 5.7458 1.2402 1.1917.827 1.7875 2.1507 1.7876 3.9714-.0001.9588-.217 1.7768-.6512 2.454-.4342.6685-1.064 1.1655-1.8898 1.491"/></svg>