<svg xmlns="http://www.w3.org/2000/svg" width="32" height="39" stroke="none" stroke-linecap="round" stroke-linejoin="round" fill="#fff" fill-rule="evenodd"><path d="M31 7.8438H1l2.5 26.2344L16 37.5l12.5-3.422L31 7.8438" fill="#c93344"/><path d="M26.8696 24.953l1.413-14.828H16v25.0938l10.1562-2.7803.6697-7.027z" fill="#ff686f"/><path d="M13.4666 31.1033L8.076 29.6276l-.4455-4.6745h4l.2177 2.2853L16 28.375v3.422zM6.76 15.8282H16v-3.422H6.4348z"/><path d="M16 28.375l4.1518-1.1366.4352-4.5666H16V19.25h4.913l.326-3.422H16v-3.422h9.5652l-1.641 17.2214L16 31.797V28.375z"/><path d="M16 22.672h-3.337l-.326-3.422H16z"/></svg>