<svg xmlns="http://www.w3.org/2000/svg" width="27" height="32" stroke="none" stroke-linecap="round" stroke-linejoin="round" fill="#c93344" fill-rule="evenodd"><path d="M7.596 10.3h11.5847v2.3903H7.596zm0 4.5965h11.5847v2.3903H7.596zm0 4.5202h11.5847v2.3903H7.596zM20.7662 1H4.4634C2.547 1 1 2.728 1 4.8686v21.2628C1 28.272 2.547 30 4.4634 30h18.0732C24.453 30 26 28.272 26 26.1314V6.7693L20.7662 1zm1.7704 26.696H4.4634c-.74 0-1.332-.6623-1.332-1.5647V4.8686c0-.8256.593-1.488 1.332-1.488h15.1942V8.161H23.86v18.047c0 .8256-.5844 1.488-1.3235 1.488z"/></svg>