<svg xmlns="http://www.w3.org/2000/svg" width="24" height="22" stroke="#000" stroke-linecap="round" stroke-linejoin="round" fill="#fff" fill-rule="evenodd"><path d="M12 .5C5.6492.5.5 5.3203.5 11.2654c0 4.7572 3.2948 8.7916 7.8648 10.2148.575.0986.7847-.234.7847-.5177l-.016-2.004c-3.1978.6505-3.8738-1.2695-3.8738-1.2695-.5236-1.243-1.2768-1.5743-1.2768-1.5743-1.045-.6676.0793-.6544.0793-.6544 1.1546.075 1.7625 1.109 1.7625 1.109 1.0262 1.6453 2.6925 1.1696 3.3467.8936.1045-.6938.4022-1.1696.73-1.4377-2.5528-.272-5.2383-1.1958-5.2383-5.321 0-1.176.4485-2.1355 1.1827-2.889-.1172-.2733-.513-1.3687.1137-2.8504 0 0 .9645-.289 3.1628 1.104.9166-.2398 1.9-.358 2.8778-.362.977.004 1.961.1235 2.8792.3634 2.1942-1.3943 3.16-1.104 3.16-1.104.629 1.483.233 2.577.115 2.849.737.7536 1.182 1.713 1.182 2.889 0 4.1356-2.6897 5.0463-5.2516 5.313.414.3338.7805.9882.7805 1.9922l-.0155 2.9542c0 .2865.2092.6216.7918.5164C20.208 20.0544 23.5 16.02 23.5 11.2654 23.5 5.3203 18.3508.5 12 .5z" stroke="none" fill="#c93344"/></svg>