<svg xmlns="http://www.w3.org/2000/svg" width="28" height="28" stroke="none" stroke-linecap="round" stroke-linejoin="round" fill="#fff" fill-rule="nonzero"><path d="M3.3208 23.4515L1 .5h25.5l-2.3226 22.9483L13.7337 26z" fill="#c93344"/><path d="M22.1882 21.9868l1.9856-19.61H13.75V24.05z" fill="#ff686f"/><path d="M13.739 5.1913H5.7446l.8613 8.5125h7.144V10.889H9.526l-.292-2.8824h4.516V5.1913zm.011 13l-.0136.0032-3.5553-.8463-.226-2.245H6.7487l.4473 4.4197 6.5395 1.5938.0145-.004z" fill="#ebebeb"/><path d="M13.739 13.7038h3.9313l-.3615 3.6498-3.5608.847v2.9286l6.545-1.5994.8766-8.6424H13.75zm7.9204-7.757l.076-.7555h-7.998V8.006h7.7107l.0633-.6328z"/></svg>