<svg xmlns="http://www.w3.org/2000/svg" width="30" height="29" stroke="none" stroke-linecap="round" stroke-linejoin="round" fill="#fff" fill-rule="nonzero"><path d="M26.0003 1H2.993C1.8944 1 1 1.8555 1 2.909v22.6864C1 26.643 1.8944 27.5 2.993 27.5h23.009c1.101 0 1.998-.857 1.998-1.9047V2.909C28 1.8555 27.103 1 26.0003 1z" fill="#c93344"/><path d="M5.0036 10.9344h4.012v12.646h-4.012zm2.003-6.294c1.28 0 2.3204 1.021 2.3204 2.2774s-1.0404 2.28-2.3195 2.28S4.687 8.176 4.6838 6.918c0-.6044.2448-1.184.6805-1.6112s1.0265-.667 1.6423-.6662m4.514 6.294h3.8408v1.7284h.053c.535-.9938 1.841-2.0422 3.797-2.0422 4.055 0 4.8034 2.6194 4.8034 6.024v6.9366h-4.002v-6.1515c0-1.4658-.027-3.354-2.0806-3.354-2.084 0-2.4047 1.5984-2.4047 3.2464v6.2558h-4.001V10.932z"/></svg>