<?xml version="1.0" encoding="utf-8"?>
<!-- Generator: Adobe Illustrator 24.0.2, SVG Export Plug-In . SVG Version: 6.00 Build 0)  -->
<svg version="1.1" id="Capa_1" xmlns="http://www.w3.org/2000/svg" xmlns:xlink="http://www.w3.org/1999/xlink" x="0px" y="0px"
	 viewBox="0 0 32 33" style="enable-background:new 0 0 32 33;" xml:space="preserve">
<style type="text/css">
	.st0{fill-rule:evenodd;clip-rule:evenodd;}
	.st1{fill-rule:evenodd;clip-rule:evenodd;fill:#FFFFFF;}
</style>
<path class="st0" d="M31,5.8C31,2.9,28.7,1,25.9,1H6.1C3.3,1,1,2.9,1,5.8v21.5C1,30.1,3.3,32,6.1,32h19.8c2.8,0,5.1-1.9,5.1-4.8V5.8
	z"/>
<path class="st1" d="M15.8,14.3c0.8,0,1.4-0.2,1.8-0.5s0.6-0.9,0.6-1.6c0-0.7-0.2-1.2-0.6-1.5c-0.4-0.4-1-0.5-1.8-0.5h-2.7v4.2
	L15.8,14.3 M16,22.9c1,0,1.7-0.2,2.2-0.6c0.5-0.4,0.8-1.1,0.8-2c0-0.9-0.2-1.5-0.7-1.9C17.7,18,17,17.7,16,17.7h-2.9v5.2L16,22.9
	 M20.5,15.8c1.1,0.3,1.9,0.9,2.5,1.8s0.9,1.9,0.9,3.1c0,1.9-0.6,3.3-1.9,4.2s-3.1,1.4-5.7,1.4H8.2V6.7h7.4c2.6,0,4.6,0.4,5.7,1.2
	c1.2,0.8,1.8,2.2,1.8,4c0,1-0.2,1.8-0.7,2.5C22,15,21.4,15.5,20.5,15.8"/>
</svg>
