<?xml version="1.0" encoding="utf-8"?>
<!-- Generator: Adobe Illustrator 24.0.2, SVG Export Plug-In . SVG Version: 6.00 Build 0)  -->
<svg version="1.1" id="Capa_1" xmlns="http://www.w3.org/2000/svg" xmlns:xlink="http://www.w3.org/1999/xlink" x="0px" y="0px"
	 viewBox="0 0 32 39" style="enable-background:new 0 0 32 39;" xml:space="preserve">
<style type="text/css">
	.st0{fill-rule:evenodd;clip-rule:evenodd;}
	.st1{fill-rule:evenodd;clip-rule:evenodd;fill:#383637;}
	.st2{fill-rule:evenodd;clip-rule:evenodd;fill:#FFFFFF;}
</style>
<path class="st0" d="M31,7.8H1l2.5,26.2L16,37.5l12.5-3.4L31,7.8"/>
<path class="st1" d="M26.9,25l1.4-14.8H16v25.1l10.2-2.8l0.7-7L26.9,25z"/>
<path class="st2" d="M13.5,31.1l-5.4-1.5L7.6,25h4l0.2,2.3l4.2,1.1v3.4L13.5,31.1z M6.8,15.8H16v-3.4H6.4L6.8,15.8z"/>
<path class="st2" d="M16,28.4l4.2-1.1l0.4-4.6H16v-3.4h4.9l0.3-3.4H16v-3.4h9.6l-1.6,17.2L16,31.8V28.4z"/>
<path class="st2" d="M16,22.7h-3.3l-0.3-3.4H16V22.7z"/>
</svg>
