<?xml version="1.0" encoding="utf-8"?>
<!-- Generator: Adobe Illustrator 24.0.2, SVG Export Plug-In . SVG Version: 6.00 Build 0)  -->
<svg version="1.1" id="Capa_1" xmlns="http://www.w3.org/2000/svg" xmlns:xlink="http://www.w3.org/1999/xlink" x="0px" y="0px"
	 viewBox="0 0 27 32" style="enable-background:new 0 0 27 32;" xml:space="preserve">
<style type="text/css">
	.st0{fill-rule:evenodd;clip-rule:evenodd;fill:#111010;}
</style>
<path class="st0" d="M7.6,10.3h11.6v2.4H7.6V10.3z M7.6,14.9h11.6v2.4H7.6V14.9z M7.6,19.4h11.6v2.4H7.6V19.4z M20.8,1H4.5
	C2.5,1,1,2.7,1,4.9v21.3C1,28.3,2.5,30,4.5,30h18.1c1.9,0,3.5-1.7,3.5-3.9V6.8L20.8,1z M22.5,27.7H4.5c-0.7,0-1.3-0.7-1.3-1.6V4.9
	c0-0.8,0.6-1.5,1.3-1.5h15.2v4.8h4.2v18C23.9,27,23.3,27.7,22.5,27.7L22.5,27.7z"/>
</svg>
