<?xml version="1.0" encoding="utf-8"?>
<!-- Generator: Adobe Illustrator 24.0.2, SVG Export Plug-In . SVG Version: 6.00 Build 0)  -->
<svg version="1.1" id="Capa_1" xmlns="http://www.w3.org/2000/svg" xmlns:xlink="http://www.w3.org/1999/xlink" x="0px" y="0px"
	 viewBox="0 0 26 32" style="enable-background:new 0 0 26 32;" xml:space="preserve">
<style type="text/css">
	.st0{fill:#282627;}
	.st1{fill:#757373;}
	.st2{fill:#1C1B1B;}
</style>
<path class="st0" d="M16.6,11.8l-3.3,2.8L10.2,9l1.6-3.2c0.4-0.7,1.1-0.6,1.5,0L16.6,11.8z"/>
<path d="M10.2,9l3.1,5.6L1,25.1L10.2,9z"/>
<path class="st1" d="M20.2,7.6C20.8,7,21.4,7.2,21.5,8l3.2,17l-10.6,5.8c-0.4,0.2-1.4,0.3-1.4,0.3s-0.9-0.1-1.2-0.3L1,25.1L20.2,7.6
	z"/>
<path class="st2" d="M10.2,9L1,25.1L5.1,1.6c0.2-0.7,0.6-0.8,1-0.2L10.2,9z"/>
</svg>
