<?xml version="1.0" encoding="utf-8"?>
<!-- Generator: Adobe Illustrator 24.0.2, SVG Export Plug-In . SVG Version: 6.00 Build 0)  -->
<svg version="1.1" id="Capa_1" xmlns="http://www.w3.org/2000/svg" xmlns:xlink="http://www.w3.org/1999/xlink" x="0px" y="0px"
	 viewBox="0 0 24 22" style="enable-background:new 0 0 24 22;" xml:space="preserve">
<style type="text/css">
	.st0{fill-rule:evenodd;clip-rule:evenodd;}
</style>
<path class="st0" d="M12,0.5C5.6,0.5,0.5,5.3,0.5,11.3c0,4.8,3.3,8.8,7.9,10.2c0.6,0.1,0.8-0.2,0.8-0.5l0-2
	c-3.2,0.7-3.9-1.3-3.9-1.3C4.7,16.4,4,16.1,4,16.1c-1-0.7,0.1-0.7,0.1-0.7c1.2,0.1,1.8,1.1,1.8,1.1c1,1.6,2.7,1.2,3.3,0.9
	c0.1-0.7,0.4-1.2,0.7-1.4c-2.6-0.3-5.2-1.2-5.2-5.3c0-1.2,0.4-2.1,1.2-2.9C5.7,7.5,5.3,6.4,6,5c0,0,1-0.3,3.2,1.1
	C10,5.8,11,5.7,12,5.7c1,0,2,0.1,2.9,0.4C17.1,4.7,18,5,18,5c0.6,1.5,0.2,2.6,0.1,2.8c0.7,0.8,1.2,1.7,1.2,2.9c0,4.1-2.7,5-5.3,5.3
	c0.4,0.3,0.8,1,0.8,2l0,3c0,0.3,0.2,0.6,0.8,0.5c4.6-1.4,7.9-5.5,7.9-10.2C23.5,5.3,18.4,0.5,12,0.5z"/>
</svg>
