<?xml version="1.0" encoding="utf-8"?>
<!-- Generator: Adobe Illustrator 24.0.2, SVG Export Plug-In . SVG Version: 6.00 Build 0)  -->
<svg version="1.1" id="Capa_1" xmlns="http://www.w3.org/2000/svg" xmlns:xlink="http://www.w3.org/1999/xlink" x="0px" y="0px"
	 viewBox="0 0 28 28" style="enable-background:new 0 0 28 28;" xml:space="preserve">
<style type="text/css">
	.st0{fill:#3D3B3C;}
	.st1{fill:#EBEBEB;}
	.st2{fill:#FFFFFF;}
</style>
<path d="M3.3,23.5L1,0.5h25.5l-2.3,22.9L13.7,26L3.3,23.5z"/>
<path class="st0" d="M22.2,22l2-19.6H13.8V24L22.2,22z"/>
<path class="st1" d="M13.7,5.2h-8l0.9,8.5h7.1v-2.8H9.5L9.2,8h4.5L13.7,5.2L13.7,5.2z M13.8,18.2L13.8,18.2l-3.6-0.8L10,15.1H6.7
	l0.4,4.4l6.5,1.6l0,0V18.2z"/>
<path class="st2" d="M13.7,13.7h3.9l-0.4,3.6l-3.6,0.8v2.9l6.5-1.6l0.9-8.6h-7.4L13.7,13.7z M21.7,5.9l0.1-0.8h-8V8h7.7l0.1-0.6
	L21.7,5.9z"/>
</svg>
