<?xml version="1.0" encoding="utf-8"?>
<!-- Generator: Adobe Illustrator 24.0.2, SVG Export Plug-In . SVG Version: 6.00 Build 0)  -->
<svg version="1.1" id="Capa_1" xmlns="http://www.w3.org/2000/svg" xmlns:xlink="http://www.w3.org/1999/xlink" x="0px" y="0px"
	 viewBox="0 0 82 82" style="enable-background:new 0 0 82 82;" xml:space="preserve">
<style type="text/css">
	.st0{fill-rule:evenodd;clip-rule:evenodd;}
	.st1{fill-rule:evenodd;clip-rule:evenodd;fill:#ECFDFA;}
</style>
<path class="st0" d="M1,1h80v80H1V1z"/>
<path class="st1" d="M37,64V38h7v26c0,10-14,16-22,4l6-4C31,70,37,68,37,64z M67,47c-4-5.5-9-3-9,0.5C58,53,74.5,52,74.5,64
	c-0.5,14-20,13.5-26,3l6-3.5C59,70.5,67,68,67,64c-0.5-7-16-3.5-16-16.5c-0.5-10,14.5-15.5,21.5-4L67,47"/>
</svg>
