<?xml version="1.0" encoding="utf-8"?>
<!-- Generator: Adobe Illustrator 24.0.2, SVG Export Plug-In . SVG Version: 6.00 Build 0)  -->
<svg version="1.1" id="Capa_1" xmlns="http://www.w3.org/2000/svg" xmlns:xlink="http://www.w3.org/1999/xlink" x="0px" y="0px"
	 viewBox="0 0 30 29" style="enable-background:new 0 0 30 29;" xml:space="preserve">
<style type="text/css">
	.st0{fill:#FFFFFF;}
</style>
<path d="M26,1H3C1.9,1,1,1.9,1,2.9v22.7c0,1,0.9,1.9,2,1.9h23c1.1,0,2-0.9,2-1.9V2.9C28,1.9,27.1,1,26,1z"/>
<path class="st0" d="M5,10.9h4v12.6H5V10.9z M7,4.6c1.3,0,2.3,1,2.3,2.3S8.3,9.2,7,9.2s-2.3-1-2.3-2.3c0-0.6,0.2-1.2,0.7-1.6
	S6.4,4.6,7,4.6 M11.5,10.9h3.8v1.7h0.1c0.5-1,1.8-2,3.8-2c4.1,0,4.8,2.6,4.8,6v6.9h-4v-6.2c0-1.5,0-3.4-2.1-3.4
	c-2.1,0-2.4,1.6-2.4,3.2v6.3h-4L11.5,10.9L11.5,10.9z"/>
</svg>
