<?xml version="1.0" encoding="utf-8"?>
<!-- Generator: Adobe Illustrator 24.0.2, SVG Export Plug-In . SVG Version: 6.00 Build 0)  -->
<svg version="1.1" id="Capa_1" xmlns="http://www.w3.org/2000/svg" xmlns:xlink="http://www.w3.org/1999/xlink" x="0px" y="0px"
	 viewBox="0 0 31 32" style="enable-background:new 0 0 31 32;" xml:space="preserve">
<path d="M13.2,0.3c0.8-0.4,1.8-0.4,2.6,0l12,6.3c0.7,0.4,1.2,1.2,1.2,2v12.7c0,0.8-0.5,1.6-1.3,2l-11.9,6.3
	c-0.8,0.4-1.8,0.4-2.6-0.1l-3.6-1.9c-0.2-0.1-0.5-0.2-0.7-0.5C9,27,9.3,27,9.5,26.9c0.5-0.1,1-0.4,1.4-0.6c0.1-0.1,0.3,0,0.4,0
	l3,1.7c0.2,0.1,0.4,0,0.6-0.1l11.7-6.2c0.1-0.1,0.2-0.2,0.2-0.4V8.7c0-0.2-0.1-0.3-0.3-0.4L14.7,2c-0.1-0.1-0.3-0.1-0.5,0L2.4,8.3
	C2.2,8.4,2.1,8.5,2.2,8.7v12.6c0,0.1,0.1,0.3,0.2,0.4l3.2,1.7c0.6,0.3,1.3,0.5,2,0.2c0.6-0.2,1-0.7,1-1.3l0-12.5
	c0-0.2,0.2-0.3,0.4-0.3h1.5c0.2,0,0.4,0.2,0.3,0.4l0,12.6c0,1.1-0.5,2.3-1.6,2.9c-1.4,0.7-3,0.5-4.4-0.1l-3.4-1.8
	C0.5,23,0,22.2,0,21.4V8.7c0-0.8,0.5-1.6,1.3-2L13.2,0.3z M16.6,9.1c1.7-0.1,3.6-0.1,5.1,0.7c1.2,0.6,1.9,1.9,1.9,3.2
	c0,0.2-0.2,0.3-0.4,0.3c-0.5,0-1,0-1.5,0c-0.2,0-0.3-0.2-0.4-0.4c-0.1-0.6-0.5-1.2-1.1-1.5c-0.9-0.4-2-0.4-3-0.4
	c-0.7,0-1.5,0.1-2.2,0.5c-0.5,0.3-0.6,0.9-0.5,1.4c0.2,0.4,0.6,0.5,1,0.6c2.1,0.5,4.3,0.5,6.3,1.1c0.8,0.3,1.7,0.8,2,1.6
	c0.4,1.1,0.2,2.5-0.6,3.3c-0.7,0.7-1.7,1.1-2.7,1.4c-1.3,0.3-2.7,0.3-4,0.2c-1.3-0.1-2.6-0.4-3.6-1.3c-0.8-0.7-1.2-1.7-1.2-2.8
	c0-0.2,0.2-0.3,0.4-0.3h1.5c0.2,0,0.4,0.2,0.4,0.3c0.1,0.6,0.3,1.2,0.9,1.5c1,0.6,2.3,0.6,3.5,0.6c1,0,2.1-0.1,2.9-0.7
	c0.4-0.3,0.5-0.9,0.4-1.4c-0.1-0.4-0.6-0.6-1-0.8c-2.1-0.6-4.3-0.4-6.3-1.1c-0.8-0.3-1.6-0.8-1.9-1.6c-0.4-1.1-0.2-2.5,0.7-3.4
	C14,9.6,15.4,9.2,16.6,9.1L16.6,9.1z"/>
</svg>
