<?xml version="1.0" encoding="utf-8"?>
<!-- Generator: Adobe Illustrator 24.0.2, SVG Export Plug-In . SVG Version: 6.00 Build 0)  -->
<svg version="1.1" id="Capa_1" xmlns="http://www.w3.org/2000/svg" xmlns:xlink="http://www.w3.org/1999/xlink" x="0px" y="0px"
	 viewBox="0 0 44 36" style="enable-background:new 0 0 44 36;" xml:space="preserve">
<style type="text/css">
	.st0{fill-rule:evenodd;clip-rule:evenodd;stroke:#000000;stroke-width:0.1139;stroke-linecap:round;}
	.st1{fill:none;stroke:#000000;stroke-width:2.7341;stroke-linecap:round;}
</style>
<path class="st0" d="M18.1,17.6c0-1.8,1.7-3.3,3.7-3.3s3.7,1.5,3.7,3.3s-1.7,3.3-3.7,3.3S18.1,19.4,18.1,17.6z"/>
<g>
	<path class="st1" d="M21.9,10.8c5,0,9.7,0.6,13.2,1.7c4.2,1.3,6.8,3.3,6.8,5c0,1.9-2.8,3.9-7.3,5.3c-3.4,1-7.9,1.5-12.7,1.5
		c-4.9,0-9.5-0.5-13-1.6c-4.4-1.3-7-3.4-7-5.3c0-1.8,2.5-3.7,6.7-5C12,11.5,16.8,10.8,21.9,10.8L21.9,10.8z"/>
	<path class="st1" d="M15.3,14.2c2.5-3.9,5.5-7.1,8.2-9.3c3.4-2.6,6.6-3.6,8.3-2.7c1.8,0.9,2.5,4.1,1.5,8.3
		c-0.7,3.2-2.5,6.9-4.8,10.6c-2.4,3.8-5.2,7.1-8,9.2c-3.5,2.7-6.9,3.7-8.6,2.8c-1.7-0.9-2.4-3.8-1.5-7.6
		C11,22.1,12.7,18.1,15.3,14.2L15.3,14.2z"/>
	<path class="st1" d="M15.3,21c-2.5-3.9-4.2-7.8-4.9-11c-0.9-3.9-0.3-6.9,1.5-7.8c1.8-0.9,5.2,0.1,8.8,3c2.7,2.1,5.5,5.4,7.9,9
		c2.4,3.8,4.3,7.6,5,10.8c0.9,4.1,0.2,7.1-1.6,8.1c-1.7,0.9-4.9-0.1-8.2-2.6C20.8,28.3,17.8,24.9,15.3,21L15.3,21z"/>
</g>
</svg>
