<?xml version="1.0" encoding="utf-8"?>
<!-- Generator: Adobe Illustrator 24.0.2, SVG Export Plug-In . SVG Version: 6.00 Build 0)  -->
<svg version="1.1" id="Capa_1" xmlns="http://www.w3.org/2000/svg" xmlns:xlink="http://www.w3.org/1999/xlink" x="0px" y="0px"
	 viewBox="0 0 32 32" style="enable-background:new 0 0 32 32;" xml:space="preserve">
<style type="text/css">
	.st0{fill-rule:evenodd;clip-rule:evenodd;}
	.st1{fill-rule:evenodd;clip-rule:evenodd;fill:#FFFFFF;}
</style>
<path class="st0" d="M1,6.6C1,3.5,3.5,1,6.6,1h18.8C28.5,1,31,3.5,31,6.6v18.8c0,3.1-2.5,5.6-5.6,5.6H6.6C3.5,31,1,28.5,1,25.4V6.6z
	"/>
<path class="st1" d="M10.8,18.9c0-1.2,1-2.2,2.3-2.2s2.3,1,2.3,2.2v5.4c0,1.2-1,2.2-2.3,2.2s-2.3-1-2.3-2.2V18.9z M18.9,21.3
	c-1.2,0-2.2-1-2.2-2.3s1-2.3,2.2-2.3h5.4c1.2,0,2.2,1,2.2,2.3s-1,2.3-2.2,2.3H18.9z M16.8,7.7c0-1.2,1-2.2,2.3-2.2s2.3,1,2.3,2.2
	v5.4c0,1.2-1,2.2-2.3,2.2s-2.3-1-2.3-2.2V7.7z M7.7,15.3c-1.2,0-2.2-1-2.2-2.3s1-2.3,2.2-2.3h5.4c1.2,0,2.2,1,2.2,2.3
	s-1,2.3-2.2,2.3H7.7z M16.8,24.3c0,1.2,1,2.3,2.3,2.3s2.3-1,2.3-2.3S20.2,22,19,22h-2.3V24.3z M24.3,15.3H22V13c0-1.2,1-2.3,2.3-2.3
	s2.3,1,2.3,2.3S25.5,15.3,24.3,15.3z M7.8,16.8H10V19c0,1.2-1,2.3-2.3,2.3s-2.3-1-2.3-2.3S6.5,16.8,7.8,16.8z M15.3,7.8V10H13
	c-1.2,0-2.3-1-2.3-2.3s1-2.3,2.3-2.3S15.3,6.5,15.3,7.8z"/>
</svg>
