<?xml version="1.0" encoding="utf-8"?>
<!-- Generator: Adobe Illustrator 24.0.2, SVG Export Plug-In . SVG Version: 6.00 Build 0)  -->
<svg version="1.1" id="Capa_1" xmlns="http://www.w3.org/2000/svg" xmlns:xlink="http://www.w3.org/1999/xlink" x="0px" y="0px"
	 viewBox="0 0 32 31" style="enable-background:new 0 0 32 31;" xml:space="preserve">
<style type="text/css">
	.st0{fill-rule:evenodd;clip-rule:evenodd;}
</style>
<path class="st0" d="M26.8,0.5H4.3c-1,0-2,0.4-2.7,1.1C0.9,2.3,0.5,3.3,0.5,4.3v22.5c0,2.1,1.7,3.7,3.8,3.7h22.5
	c2.1,0,3.7-1.7,3.7-3.7V4.3C30.5,2.2,28.8,0.5,26.8,0.5L26.8,0.5z M13.6,23.2c0,1-0.8,1.8-1.8,1.8H6.2c-1,0-1.8-0.8-1.8-1.8v-17
	c0-0.5,0.2-0.9,0.5-1.3s0.8-0.5,1.3-0.5h5.5c0.5,0,0.9,0.2,1.3,0.5c0.3,0.3,0.5,0.8,0.5,1.3L13.6,23.2z M26.6,15.7
	c0,0.5-0.2,0.9-0.5,1.3c-0.3,0.3-0.8,0.5-1.3,0.5h-5.6c-0.5,0-0.9-0.2-1.3-0.5c-0.3-0.3-0.5-0.8-0.5-1.3V6.2c0-0.5,0.2-0.9,0.5-1.3
	s0.8-0.5,1.3-0.5h5.6c0.5,0,0.9,0.2,1.3,0.5c0.3,0.3,0.5,0.8,0.5,1.3L26.6,15.7z"/>
</svg>
