<svg xmlns="http://www.w3.org/2000/svg" width="31" height="32" stroke="#000" stroke-linecap="round" stroke-linejoin="round" fill="#fff" fill-rule="evenodd"><path d="M13.1854.3205c.8016-.4264 1.8235-.4283 2.605 0l11.967 6.337C28.506 7.053 29.007 7.837 29 8.6474v12.7063c.005.8443-.545 1.6452-1.3345 2.033l-11.903 6.308c-.829.4304-1.8416.404-2.644-.0687l-3.572-1.939c-.2435-.1365-.517-.2447-.6893-.466.1523-.192.4228-.2165.6432-.3012.497-.1487.952-.3765 1.4087-.6174.1153-.0753.2565-.047.3667.0207l3.046 1.6546c.2174.1177.438-.0376.6242-.1364l11.6876-6.196c.1442-.066.2244-.21.2124-.3577V8.7038c.016-.1694-.0872-.3237-.2505-.3924l-11.863-6.2807a.433.433 0 0 0-.4659-.001l-11.866 6.294c-.1603.0687-.2705.2212-.2505.3906v12.584c-.014.1487.0702.289.2155.353l3.168 1.68c.595.3012 1.3255.4706 1.9808.2494.5872-.208.975-.7366.973-1.3262l.003-12.518c-.014-.1854.1723-.3388.3637-.32h1.523c.2004-.0047.3577.195.3307.3812l-.003 12.5972c.001 1.118-.488 2.3342-1.59 2.883-1.3566.659-3.034.5205-4.3745-.113l-3.4065-1.7695c-.813-.3916-1.327-1.175-1.3346-2.033V8.6558c.0068-.84.4985-1.6124 1.2845-2.015L13.1854.3205zm3.4507 8.8078c1.7303-.094 3.583-.062 5.14.739 1.2053.6136 1.8736 1.9012 1.8957 3.1606-.034.1694-.2225.2635-.3948.2513-.5-.001-1.004.0066-1.507-.003-.2134.0076-.3367-.177-.3637-.354-.1443-.6023-.494-1.198-1.097-1.49-.9258-.4357-2-.414-3.0098-.4047-.7375.0377-1.53.097-2.1542.5036-.481.3087-.6252.9412-.454 1.4325.1603.3605.6042.4762.966.5835 2.086.512 4.2953.4707 6.3422 1.136.8467.2748 1.6753.8094 1.9658 1.6424.3787 1.1163.2134 2.451-.6312 3.347-.6853.738-1.6832 1.1295-2.6802 1.3573-1.3255.2776-2.7002.2842-4.0458.16-1.2654-.1356-2.582-.448-3.5588-1.2575-.8356-.6814-1.2424-1.743-1.2024-2.767.01-.1732.1934-.2937.3708-.2796h1.503c.2024-.0132.3506.1506.3607.3294.093.5648.3226 1.1766.8556 1.506 1.028.623 2.3175.5798 3.4937.5976.975-.0404 2.07-.0527 2.8656-.6588.4208-.3454.544-.9224.4308-1.4193-.1232-.4198-.6012-.6147-1.002-.753-2.06-.6118-4.2933-.3897-6.3322-1.0824-.8276-.2748-1.6282-.7944-1.9458-1.5935-.444-1.1294-.2405-2.53.6943-3.395.9018-.8612 2.2243-1.1935 3.4767-1.312z" stroke="none" fill="#c93344" fill-rule="nonzero"/></svg>