<svg xmlns="http://www.w3.org/2000/svg" width="44" height="36" stroke="#c93344" stroke-linecap="round" stroke-linejoin="miter" fill="#fff" fill-rule="evenodd"><path d="M18.136 17.5858c0-1.84 1.664-3.3213 3.7312-3.3213s3.7312 1.4813 3.7312 3.3213-1.664 3.3212-3.7312 3.3212-3.7312-1.4813-3.7312-3.3212z" fill="#c93344" stroke-width=".1139"/><g fill="none" stroke-width="2.7341"><path d="M21.8674 10.833c5.0096 0 9.6634.64 13.1724 1.715 4.2278 1.2956 6.8272 3.2595 6.8272 5.0377 0 1.853-2.755 3.9393-7.295 5.2783-3.4324 1.0122-7.9492 1.5407-12.7046 1.5407-4.8757 0-9.4926-.496-12.9637-1.5518-4.3916-1.336-7.0367-3.4494-7.0367-5.2672 0-1.7638 2.482-3.7125 6.6503-5.006 3.522-1.093 8.2908-1.7467 13.3494-1.7467z"/><path d="M15.2632 14.229c2.5027-3.863 5.4502-7.1318 8.2497-9.3004 3.373-2.6128 6.5828-3.636 8.3133-2.7478 1.8035.9258 2.4575 4.0924 1.4925 8.262-.729 3.1525-2.4718 6.8992-4.8475 10.5662-2.4358 3.7595-5.225 7.072-7.9862 9.2203-3.4942 2.719-6.8724 3.7028-8.6414 2.7947-1.7166-.8805-2.373-3.7684-1.5495-7.629.6958-3.262 2.442-7.2655 4.9683-11.1662z"/><path d="M15.2695 21.0187c-2.5098-3.8585-4.2186-7.765-4.932-11.0068-.8585-3.906-.2515-6.8924 1.4775-7.7833 1.8016-.9284 5.2103.1486 8.7867 2.9752 2.704 2.137 5.4806 5.3517 7.8632 9.0152 2.4427 3.756 4.2736 7.561 4.9858 10.7636.9012 4.0525.1718 7.149-1.5956 8.0596-1.715.8837-4.853-.052-8.199-2.615-2.8273-2.1656-5.852-5.5117-8.3866-9.4086z"/></g></svg>