<svg xmlns="http://www.w3.org/2000/svg" width="32" height="32" stroke="none" stroke-linecap="round" stroke-linejoin="round" fill="#fff" fill-rule="evenodd"><path d="M1 6.625C1 3.5125 3.5125 1 6.625 1h18.75C28.4875 1 31 3.5125 31 6.625v18.75C31 28.4875 28.4875 31 25.375 31H6.625C3.5125 31 1 28.4875 1 25.375z" fill="#c93344"/><path d="M10.75 18.9355c0-1.2105 1.0035-2.1855 2.25-2.1855s2.25.975 2.25 2.1855v5.3794c0 1.2-1.0035 2.185-2.25 2.185s-2.25-.975-2.25-2.1855zm8.1855 2.3145c-1.2105 0-2.1855-1.0035-2.1855-2.25s.975-2.25 2.1855-2.25h5.3794c1.2 0 2.185 1.0035 2.185 2.25s-.975 2.25-2.1855 2.25zM16.75 7.6855C16.75 6.475 17.7535 5.5 19 5.5s2.25.975 2.25 2.1855v5.3794c0 1.2-1.0035 2.185-2.25 2.185s-2.25-.975-2.25-2.1855zM7.6855 15.25C6.475 15.25 5.5 14.2465 5.5 13s.975-2.25 2.1855-2.25h5.3794c1.2 0 2.185 1.0035 2.185 2.25s-.975 2.25-2.1855 2.25zm9.0645 9c0 1.2465 1.0035 2.25 2.25 2.25s2.25-1.0035 2.25-2.25S20.2465 22 19 22h-2.25zm7.5-9H22V13c0-1.2465 1.0035-2.25 2.25-2.25S26.5 11.7535 26.5 13s-1.0035 2.25-2.25 2.25zm-16.5 1.5H10V19c0 1.2465-1.0035 2.25-2.25 2.25S5.5 20.2465 5.5 19s1.0035-2.25 2.25-2.25zm7.5-9V10H13c-1.2465 0-2.25-1.0035-2.25-2.25S11.7535 5.5 13 5.5s2.25 1.0035 2.25 2.25z"/></svg>