<svg xmlns="http://www.w3.org/2000/svg" width="32" height="31" stroke="#000" stroke-linecap="round" stroke-linejoin="round" fill="#fff" fill-rule="evenodd"><path d="M26.7667.5H4.2524c-.996 0-1.9512.3957-2.655 1.0998A3.748 3.748 0 0 0 .5 4.2542v22.4964C.5 28.8213 2.18 30.5 4.2524 30.5h22.5143c2.065-.0105 3.7333-1.686 3.7333-3.7494V4.259c0-2.0633-1.6684-3.739-3.7333-3.7494zM13.5572 23.2248c-.0105.986-.8133 1.7796-1.8 1.7796H6.2143c-.9904.0053-1.799-.79-1.8095-1.7796V6.2098c-.0013-.4795.189-.9397.529-1.2783s.8007-.5276 1.2806-.525h5.5428a1.801 1.801 0 0 1 1.2729.5268 1.798 1.798 0 0 1 .5272 1.2718zm13.062-7.4988a1.798 1.798 0 0 1-.5272 1.2718 1.801 1.801 0 0 1-1.2728.5268H19.262a1.801 1.801 0 0 1-1.2728-.5268 1.798 1.798 0 0 1-.5272-1.2718V6.2098c-.0012-.478.1878-.9366.5256-1.275s.7962-.5285 1.2744-.5285h5.5572a1.801 1.801 0 0 1 1.2728.5268 1.798 1.798 0 0 1 .5272 1.2718z" stroke="none" fill="#c93344"/></svg>